<svg xmlns="http://www.w3.org/2000/svg" xmlns:svg="http://www.w3.org/2000/svg" xmlns:xlink="http://www.w3.org/1999/xlink" id="svg1212" width="41" height="44" version="1.1" viewBox="0 0 41 44"><defs id="defs1206"><linearGradient id="linearGradient992" x1="48" x2="464" y1="44" y2="44" gradientTransform="matrix(0.09375,0,0,0.09375,-3.500001,244.73584)" gradientUnits="userSpaceOnUse" xlink:href="#linearGradient974"/><linearGradient id="linearGradient974"><stop id="stop962" offset="0" style="stop-color:#babdb6;stop-opacity:1"/><stop style="stop-color:#f6f5f4;stop-opacity:1" id="stop964" offset=".042"/><stop id="stop966" offset=".083" style="stop-color:#d5d3cf;stop-opacity:1"/><stop style="stop-color:#deddda;stop-opacity:1" id="stop968" offset=".917"/><stop id="stop970" offset=".958" style="stop-color:#f6f5f4;stop-opacity:1"/><stop id="stop972" offset="1" style="stop-color:#babdb6;stop-opacity:1"/></linearGradient><linearGradient id="linearGradient15047" x1="48" x2="464" y1="44" y2="44" gradientTransform="matrix(0.09375,0,0,0.09375,-82.500001,304.73584)" gradientUnits="userSpaceOnUse" xlink:href="#linearGradient974"/><linearGradient id="linearGradient1207" x1="-254" x2="-206" y1="64" y2="64" gradientTransform="matrix(0.44643041,0,0,0.44643041,-138.72178,-8.165377)" gradientUnits="userSpaceOnUse" xlink:href="#linearGradient1205"/><linearGradient id="linearGradient1205"><stop style="stop-color:#deddda;stop-opacity:1" id="stop1201" offset="0"/><stop style="stop-color:#c0bfbc;stop-opacity:1" id="stop1203" offset="1"/></linearGradient><radialGradient id="radialGradient1528" cx="-223" cy="64" r="24" fx="-223" fy="64" gradientTransform="matrix(0.69444688,0,0,0.69444688,-82.29804,-24.038432)" gradientUnits="userSpaceOnUse" xlink:href="#linearGradient1110"/><linearGradient id="linearGradient1110"><stop id="stop1108" offset="0" style="stop-color:#c0bfbc;stop-opacity:1"/><stop id="stop1106" offset="1" style="stop-color:#5e5c64;stop-opacity:1"/></linearGradient><linearGradient id="linearGradient24134" x1="48" x2="464" y1="44" y2="44" gradientTransform="matrix(0.09375,0,0,0.09375,65.266133,304.73584)" gradientUnits="userSpaceOnUse" xlink:href="#linearGradient974"/></defs><metadata id="metadata1209"/><g id="layer1" transform="translate(0,-285.35832)"><rect style="display:inline;opacity:1;fill:url(#linearGradient992);fill-opacity:1;stroke:none;stroke-width:.09375001;stroke-linecap:butt;stroke-linejoin:miter;stroke-miterlimit:4;stroke-dasharray:none;stroke-dashoffset:0;stroke-opacity:1;marker:none;marker-start:none;marker-mid:none;marker-end:none;paint-order:normal;enable-background:new" id="rect972" width="39" height="31.5" x="1" y="236.861" rx="3" ry="3"/><rect id="rect974" width="39" height="32.25" x="1" y="229.361" rx="3" ry="3" style="display:inline;opacity:1;fill:#f6f5f4;fill-opacity:1;stroke:none;stroke-width:.09375001;stroke-linecap:butt;stroke-linejoin:miter;stroke-miterlimit:4;stroke-dasharray:none;stroke-dashoffset:0;stroke-opacity:1;marker:none;marker-start:none;marker-mid:none;marker-end:none;paint-order:normal;enable-background:new"/><path style="display:inline;opacity:1;fill:#ff7800;fill-opacity:1;stroke:none;stroke-width:.09375001;stroke-linecap:butt;stroke-linejoin:miter;stroke-miterlimit:4;stroke-dasharray:none;stroke-dashoffset:0;stroke-opacity:1;marker:none;marker-start:none;marker-mid:none;marker-end:none;paint-order:normal;enable-background:new" id="rect10782" d="m 3.999988,226.35838 c -1.662,0 -2.999999,1.338 -2.999999,3 v 28.99994 h 39 v -28.99994 c 0,-1.662 -1.338001,-3 -3.000001,-3 z"/><rect id="rect15033" width="39" height="31.5" x="-78" y="296.861" rx="3" ry="3" style="display:inline;opacity:1;fill:url(#linearGradient15047);fill-opacity:1;stroke:none;stroke-width:.09375001;stroke-linecap:butt;stroke-linejoin:miter;stroke-miterlimit:4;stroke-dasharray:none;stroke-dashoffset:0;stroke-opacity:1;marker:none;marker-start:none;marker-mid:none;marker-end:none;paint-order:normal;enable-background:new"/><rect style="display:inline;opacity:1;fill:#f6f5f4;fill-opacity:1;stroke:none;stroke-width:.09375001;stroke-linecap:butt;stroke-linejoin:miter;stroke-miterlimit:4;stroke-dasharray:none;stroke-dashoffset:0;stroke-opacity:1;marker:none;marker-start:none;marker-mid:none;marker-end:none;paint-order:normal;enable-background:new" id="rect15035" width="39" height="32.25" x="-78" y="289.361" rx="3" ry="3"/><path id="path15041" d="m -75.000012,286.35838 c -1.662,0 -3,1.338 -3,3 v 28.99994 h 39.000001 v -28.99994 c 0,-1.662 -1.338001,-3 -3.000001,-3 z" style="display:inline;opacity:1;fill:#ff7800;fill-opacity:1;stroke:none;stroke-width:.09375001;stroke-linecap:butt;stroke-linejoin:miter;stroke-miterlimit:4;stroke-dasharray:none;stroke-dashoffset:0;stroke-opacity:1;marker:none;marker-start:none;marker-mid:none;marker-end:none;paint-order:normal;enable-background:new"/><path id="path15043" d="m -57.926225,292.35832 a 6.2857142,6.2857142 0 0 0 -6.285714,6.28572 6.2857142,6.2857142 0 0 0 3.142858,5.43708 v 10.2772 h 6.285714 v -10.28027 a 6.2857142,6.2857142 0 0 0 3.142856,-5.43401 6.2857142,6.2857142 0 0 0 -6.285714,-6.28572 z" style="display:inline;opacity:1;vector-effect:none;fill:#412f03;fill-opacity:1;stroke:none;stroke-width:9.4285717;stroke-linecap:butt;stroke-linejoin:round;stroke-miterlimit:4;stroke-dasharray:none;stroke-dashoffset:0;stroke-opacity:1;enable-background:new"/><circle id="circle1197" cx="-242.74" cy="20.406" r="12.5" transform="rotate(-90)" style="display:inline;opacity:1;vector-effect:none;fill:#3d3846;fill-opacity:1;stroke:none;stroke-width:4.16668177;stroke-linecap:round;stroke-linejoin:round;stroke-miterlimit:4;stroke-dasharray:none;stroke-dashoffset:0;stroke-opacity:1;enable-background:new"/><circle style="display:inline;opacity:1;vector-effect:none;fill:url(#radialGradient1528);fill-opacity:1;stroke:none;stroke-width:4.16668177;stroke-linecap:round;stroke-linejoin:round;stroke-miterlimit:4;stroke-dasharray:none;stroke-dashoffset:0;stroke-opacity:1;enable-background:new" id="path2947" cx="-241.847" cy="20.406" r="12.5" transform="rotate(-90)"/><circle id="circle1121" cx="-241.401" cy="20.406" r="10.714" transform="rotate(-90)" style="display:inline;opacity:1;vector-effect:none;fill:url(#linearGradient1207);fill-opacity:1;stroke:none;stroke-width:3.57144117;stroke-linecap:round;stroke-linejoin:round;stroke-miterlimit:4;stroke-dasharray:none;stroke-dashoffset:0;stroke-opacity:1;enable-background:new"/><path style="display:inline;opacity:1;vector-effect:none;fill:#3d3846;fill-opacity:1;stroke:none;stroke-width:.43490815;stroke-linecap:round;stroke-linejoin:round;stroke-miterlimit:4;stroke-dasharray:none;stroke-dashoffset:0;stroke-opacity:1;enable-background:new" id="rect1125" d="M 22.000011,234.35832 H 19 v 5 h 1.562503 v 0.62501 L 19,240.92083 v 8.43749 h 3.000011 v -4.6875 L 20.562503,243.73333 22,242.79582 Z"/><rect id="rect24120" width="39" height="31.5" x="69.766" y="296.861" rx="3" ry="3" style="display:inline;opacity:1;fill:url(#linearGradient24134);fill-opacity:1;stroke:none;stroke-width:.09375001;stroke-linecap:butt;stroke-linejoin:miter;stroke-miterlimit:4;stroke-dasharray:none;stroke-dashoffset:0;stroke-opacity:1;marker:none;marker-start:none;marker-mid:none;marker-end:none;paint-order:normal;enable-background:new"/><rect style="display:inline;opacity:1;fill:#f6f5f4;fill-opacity:1;stroke:none;stroke-width:.09375001;stroke-linecap:butt;stroke-linejoin:miter;stroke-miterlimit:4;stroke-dasharray:none;stroke-dashoffset:0;stroke-opacity:1;marker:none;marker-start:none;marker-mid:none;marker-end:none;paint-order:normal;enable-background:new" id="rect24122" width="39" height="32.25" x="69.766" y="289.361" rx="3" ry="3"/><path id="path24124" d="m 72.766122,286.35838 c -1.662,0 -2.999999,1.338 -2.999999,3 v 28.99994 h 38.999997 v -28.99994 c 0,-1.662 -1.338,-3 -3,-3 z" style="display:inline;opacity:1;fill:#ff7800;fill-opacity:1;stroke:none;stroke-width:.09375001;stroke-linecap:butt;stroke-linejoin:miter;stroke-miterlimit:4;stroke-dasharray:none;stroke-dashoffset:0;stroke-opacity:1;marker:none;marker-start:none;marker-mid:none;marker-end:none;paint-order:normal;enable-background:new"/><path id="path24132" d="m 90.766146,294.35832 h -3.000011 v 5 h 1.562503 v 0.62501 l -1.562503,0.9375 v 8.43749 h 3.000011 v -4.6875 l -1.437508,-0.93749 1.437497,-0.93751 z" style="display:inline;opacity:1;vector-effect:none;fill:#000;fill-opacity:1;stroke:none;stroke-width:.43490815;stroke-linecap:round;stroke-linejoin:round;stroke-miterlimit:4;stroke-dasharray:none;stroke-dashoffset:0;stroke-opacity:1;enable-background:new"/><path style="color:#bebebe;display:inline;overflow:visible;visibility:visible;fill:#fff;fill-opacity:1;fill-rule:nonzero;stroke:none;stroke-width:4;marker:none;enable-background:new" id="rect4063-8-6" d="m 18,296.35832 c -3.2894,0 -6,2.7106 -6,6 v 4 c 0,0 -2,0 -2,2 v 1.0625 8.9375 h 20 v -8.9375 -1.0625 c 0,0 0,-2 -2,-2 v -4 c 0,-3.2894 -2.7106,-6 -6,-6 z m 0,4 h 4 c 1.1426,0 2,0.8574 2,2 v 4 h -8 v -4 c 0,-1.1426 0.8574,-2 2,-2 z"/></g></svg>